<?xml version="1.0" encoding="UTF-8"?>
<!DOCTYPE svg PUBLIC "-//W3C//DTD SVG 1.1//EN" "http://www.w3.org/Graphics/SVG/1.1/DTD/svg11.dtd">
<svg version="1.1" xmlns="http://www.w3.org/2000/svg" xmlns:xlink="http://www.w3.org/1999/xlink" x="0" y="0" width="255.15" height="259.835" viewBox="0, 0, 255.15, 259.835">
  <defs>
    <linearGradient id="Gradient_1" gradientUnits="userSpaceOnUse" x1="394.25" y1="421.518" x2="647.4" y2="421.518">
      <stop offset="0" stop-color="#404040"/>
      <stop offset="1" stop-color="#000000"/>
    </linearGradient>
  </defs>
  <g id="Layer_1" transform="translate(-392.75, -291.101)">
    <g>
      <path d="M441.348,550.435 L394.25,550.435 L497.473,418.271 L400.726,292.601 L449.59,292.601 L523.18,391.242 L596.182,292.601 L642.691,292.601 L545.944,418.271 L647.4,550.435 L598.929,550.435 L521.218,444.423 z" fill="url(#Gradient_1)"/>
      <path d="M441.348,550.435 L394.25,550.435 L497.473,418.271 L400.726,292.601 L449.59,292.601 L523.18,391.242 L596.182,292.601 L642.691,292.601 L545.944,418.271 L647.4,550.435 L598.929,550.435 L521.218,444.423 z" fill-opacity="0" stroke="#000000" stroke-width="1"/>
    </g>
    <g>
      <path d="M447.784,550.436 L403.755,550.436 L500.253,422.876 L409.809,301.584 L455.49,301.584 L524.286,396.788 L592.531,301.584 L636.01,301.584 L545.567,422.876 L640.413,550.436 L595.1,550.436 L522.451,448.117 z" fill="#0093FF"/>
      <path d="M447.784,550.436 L403.755,550.436 L500.253,422.876 L409.809,301.584 L455.49,301.584 L524.286,396.788 L592.531,301.584 L636.01,301.584 L545.567,422.876 L640.413,550.436 L595.1,550.436 L522.451,448.117 z" fill-opacity="0" stroke="#000000" stroke-width="1"/>
    </g>
  </g>
</svg>
