<?xml version="1.0" encoding="UTF-8"?>
<!DOCTYPE svg PUBLIC "-//W3C//DTD SVG 1.1//EN" "http://www.w3.org/Graphics/SVG/1.1/DTD/svg11.dtd">
<svg version="1.1" xmlns="http://www.w3.org/2000/svg" xmlns:xlink="http://www.w3.org/1999/xlink" x="0" y="0" width="254.752" height="257.835" viewBox="0, 0, 254.752, 257.835">
  <defs>
    <radialGradient id="Gradient_1" gradientUnits="userSpaceOnUse" cx="364.208" cy="482.858" r="124.248">
      <stop offset="0" stop-color="#FFFFFF"/>
      <stop offset="1" stop-color="#EE0000"/>
    </radialGradient>
  </defs>
  <g id="Layer_2" transform="translate(-233.704, -347.814)">
    <path d="M456.864,387.373 Q482.2,418.229 482.2,466.332 Q482.2,518.392 453.22,552.887 Q419.208,593.395 356.216,593.395 Q297.389,593.395 263.724,557.951 Q233.704,523.772 233.704,471.554 Q233.704,424.4 259.386,390.854 Q292.357,347.814 356.911,347.814 Q424.414,347.814 456.864,387.373 z M426.41,535.402 Q446.8,505.575 446.8,466.807 Q446.8,425.824 423.286,400.823 Q399.773,375.821 358.993,375.821 Q319.428,375.821 294.439,400.585 Q269.451,425.349 269.451,473.611 Q269.451,512.22 290.882,538.725 Q312.313,565.229 360.381,565.229 Q406.02,565.229 426.41,535.402 z" fill="#000000"/>
    <path d="M463.12,399.626 Q488.456,430.482 488.456,478.585 Q488.456,530.645 459.476,565.14 Q425.464,605.648 362.473,605.648 Q303.646,605.648 269.981,570.204 Q239.96,536.025 239.96,483.807 Q239.96,436.653 265.642,403.107 Q298.613,360.067 363.167,360.067 Q430.67,360.067 463.12,399.626 z M432.666,547.655 Q453.056,517.828 453.056,479.06 Q453.056,438.077 429.542,413.076 Q406.029,388.074 365.249,388.074 Q325.684,388.074 300.696,412.838 Q275.707,437.602 275.707,485.864 Q275.707,524.473 297.138,550.978 Q318.569,577.482 366.637,577.482 Q412.276,577.482 432.666,547.655 z" fill="url(#Gradient_1)"/>
  </g>
</svg>
