<?xml version="1.0" encoding="UTF-8"?>
<!DOCTYPE svg PUBLIC "-//W3C//DTD SVG 1.1//EN" "http://www.w3.org/Graphics/SVG/1.1/DTD/svg11.dtd">
<svg version="1.1" xmlns="http://www.w3.org/2000/svg" xmlns:xlink="http://www.w3.org/1999/xlink" x="0" y="0" width="215.047" height="238.687" viewBox="0, 0, 215.047, 238.687">
  <defs>
    <radialGradient id="Gradient_1" gradientUnits="userSpaceOnUse" cx="368.868" cy="472.829" r="104.883">
      <stop offset="0" stop-color="#FFFFFF"/>
      <stop offset="1" stop-color="#0093FF"/>
    </radialGradient>
  </defs>
  <g id="Layer_2" transform="translate(-258.704, -347.814)">
    <path d="M447.083,384.435 Q468.47,412.999 468.47,457.53 Q468.47,505.724 444.007,537.657 Q415.296,575.157 362.122,575.157 Q312.464,575.157 284.046,542.345 Q258.704,510.704 258.704,462.364 Q258.704,418.712 280.384,387.657 Q308.216,347.814 362.708,347.814 Q419.691,347.814 447.083,384.435 z M421.375,521.471 Q438.587,493.859 438.587,457.97 Q438.587,420.03 418.738,396.886 Q398.89,373.741 364.466,373.741 Q331.067,373.741 309.974,396.666 Q288.88,419.591 288.88,464.269 Q288.88,500.011 306.971,524.547 Q325.062,549.083 365.638,549.083 Q404.163,549.083 421.375,521.471 z" fill="#000000"/>
    <path d="M452.364,395.778 Q473.751,424.342 473.751,468.874 Q473.751,517.067 449.288,549.001 Q420.577,586.501 367.403,586.501 Q317.745,586.501 289.327,553.688 Q263.985,522.047 263.985,473.708 Q263.985,430.055 285.665,399.001 Q313.497,359.157 367.989,359.157 Q424.972,359.157 452.364,395.778 z M426.656,532.814 Q443.868,505.202 443.868,469.313 Q443.868,431.374 424.019,408.229 Q404.171,385.085 369.747,385.085 Q336.349,385.085 315.255,408.009 Q294.161,430.934 294.161,475.612 Q294.161,511.354 312.252,535.89 Q330.343,560.426 370.919,560.426 Q409.444,560.426 426.656,532.814 z" fill="url(#Gradient_1)"/>
  </g>
</svg>
